<?xml version="1.0" encoding="UTF-8"?>
<!DOCTYPE svg PUBLIC "-//W3C//DTD SVG 1.1//EN" "http://www.w3.org/Graphics/SVG/1.1/DTD/svg11.dtd">
<!-- Creator: CorelDRAW 2019 (64-Bit) -->
<svg xmlns="http://www.w3.org/2000/svg" xml:space="preserve" width="1823px" height="1823px" version="1.1" style="shape-rendering:geometricPrecision; text-rendering:geometricPrecision; image-rendering:optimizeQuality; fill-rule:evenodd; clip-rule:evenodd"
viewBox="0 0 1048.14 1048.14"
 xmlns:xlink="http://www.w3.org/1999/xlink">
 <defs>
  <style type="text/css">
   <![CDATA[
    .fil0 {fill:none}
    .fil1 {fill:#00ABC7}
   ]]>
  </style>
 </defs>
 <g id="Слой_x0020_1">
  <metadata id="CorelCorpID_0Corel-Layer"/>
  <g id="_2027634755248">
   <rect class="fil0" width="1048.14" height="1048.14"/>
   <path class="fil1" d="M309.39 269.14c55.41,12.91 85.02,47.92 105.42,47.92 22.23,0 90.1,-30.85 191.31,-5.38 25.78,6.49 28.84,9.32 52.96,-5.28l49.02 -27.65c11.18,-5.02 17.48,-6.54 30.64,-9.61 5.53,11.53 5.71,50.17 2.8,66.05 -5.55,30.37 -11.56,32.61 6.78,56.63 18.69,24.48 28.34,49.23 34.73,80.27 7.5,36.38 2.42,67.61 -8.29,101.41 -2,6.3 -5.16,11.71 -8.51,18.32 -32.15,63.33 -97.85,91.62 -165.51,102.84 -14.72,2.44 -31.98,4.4 -46,7.67 20.06,37.91 51.73,64.12 53.62,95.87 2.8,46.88 1.96,99.58 1.96,149.47 -50.97,11.87 -121.59,11.86 -172.5,0 0,-49.3 -0.64,-101.32 1.89,-147.62 1.91,-35.11 31.77,-56.31 53.69,-97.72 -13.45,-3.14 -30.65,-5.12 -44.35,-7.4 -16.67,-2.77 -29.82,-5.44 -44.05,-9.62 -115.27,-33.84 -168.45,-133.95 -132.28,-242 4.9,-14.65 10.02,-26.47 18.33,-39.17 2.58,-3.94 5.09,-7.01 7.99,-11.18 18.42,-26.43 14.17,-24.45 7.88,-56.17 -2.99,-15.08 -3.7,-54.77 2.47,-67.65zm195.64 -235.76l46.17 0c61.75,2.97 123.02,17.96 179.91,45.97 69.16,34.07 119.19,72.14 169.23,131.7 25.37,30.19 53.97,72.28 69.22,109.03 12.85,30.96 23.14,52.56 31.3,87.55 8.42,36.13 13.13,73.2 13.9,110.2l0 21.37c-1.41,67.71 -16.24,134.45 -46.01,193.79 -25.04,49.93 -41.4,76.26 -77.13,116.46 -3.38,3.82 -3.36,4.76 -6.74,8.6 -37.18,42.22 -100.45,86.96 -154.43,111.99 -70.43,32.66 -131.12,44.71 -219.8,44.71 -157.53,0 -299.91,-86.36 -388.29,-207.81 -17.92,-24.63 -29.42,-47.02 -43.63,-75.21 -32.54,-64.56 -45.35,-135.35 -45.35,-219.16 0,-51.62 11.69,-106.68 28.46,-151.71 3.07,-8.25 5.27,-14.01 8.5,-22.17 22.64,-57.13 63.65,-117.48 107.28,-161.07 87.9,-87.85 206.73,-138.48 327.41,-144.24zm-258.89 268.35l4.27 49.68c1.75,11.24 -8.38,19.6 -13.77,28.98 -3.76,6.54 -6.63,13.05 -10.32,20.35 -22.85,45.18 -27.02,113.07 -16.14,165.04 10.09,48.21 41.01,96.98 80.59,126.42 5.36,3.99 8.83,6.71 14.2,10.71 5.62,4.19 10.43,6.37 16.74,10.1 17.72,10.48 51.92,27.74 73.94,29.57 -2.58,11.06 -10.78,25.19 -12.89,36.95 -1.2,6.68 -1.13,9.16 -2.45,14.8 -21.5,1.79 -37.02,10.92 -60.62,-4.54 -6.73,-4.41 -10.4,-7.13 -14.95,-13.81 -8.62,-12.68 -14.47,-22.09 -23.81,-33.69 -13.48,-16.74 -45.83,-41.88 -75.04,-41.88l-15.33 0c0,17.81 4.2,38.9 5.75,57.5 33.39,0.74 47.76,35.03 65.15,57.52 24.5,31.69 57.82,42.15 97.77,42.15 10.64,0 11.36,-1.92 21.08,-1.92l0 74.76c-28.09,-2.34 -105.68,-52.63 -125.19,-68.4 -18.25,-14.75 -34.06,-30.63 -50.69,-47.07 -5.17,-5.11 -6.11,-6.98 -10.63,-12.36 -4.49,-5.33 -7.03,-8.17 -11.18,-13.75 -36.74,-49.38 -66.99,-104.54 -79.78,-165.56 -29.11,-138.89 3.76,-268.24 89.9,-374.95l22.22 -25.71c58.95,-61.25 137.52,-104.77 221.06,-122.03 18.02,-3.72 67.19,-9.84 88.05,-9.84 20.49,0 68.27,5.89 86.45,9.52 26.72,5.32 52.51,13.9 74.86,22.9 39.93,16.09 74.26,36.99 107.29,63.3 4.7,3.75 9.34,7.04 13.66,11.25 16.82,16.39 33.6,30.79 48.24,49.52l21.03 26.88c35.03,50.8 62.04,105.28 73.47,171.88 11.11,64.8 9.07,114.11 -3.45,175.69 -9.73,47.84 -34.85,101.65 -58.52,136.99 -3.63,5.43 -5.59,8.36 -9.19,13.81 -9.7,14.71 -20.72,29.06 -33.24,41.51 -17.41,17.33 -31.26,31.84 -50.59,47.17 -20.5,16.26 -97.58,66.86 -126.26,69.25 0,-37.07 4.92,-135.36 -7.37,-168.96 -2.71,-7.4 -6.2,-11.34 -7.96,-18.88 12.82,-1.07 27.71,-7.79 39.16,-12.6 14.03,-5.9 22.3,-9.59 34.78,-16.97 5.66,-3.35 10.66,-5.66 15.65,-9.27 70.01,-50.6 102.09,-114.77 102.09,-202.67 0,-55.66 -15.86,-97.39 -44.28,-137.97 -5,-7.13 -1.03,-16.18 -0.14,-23.37 5.04,-40.95 4.58,-130.01 -49.51,-130.01 -23.26,0 -51.87,8.58 -69.01,17.25 -68.6,34.69 -29.52,31.54 -100.7,20.21 -16.92,-2.69 -38.36,-3.29 -54.89,-4.66 -16.24,-1.34 -59.31,4.56 -77.73,7.96 -44.52,8.21 -18.44,7.79 -79.71,-22.89 -24.31,-12.17 -71.43,-30.15 -97.46,-6.69 -19.66,17.71 -24.6,52.75 -24.6,80.83z"/>
  </g>
 </g>
</svg>
