<?xml version="1.0" encoding="UTF-8"?>
<!DOCTYPE svg PUBLIC "-//W3C//DTD SVG 1.1//EN" "http://www.w3.org/Graphics/SVG/1.1/DTD/svg11.dtd">
<!-- Creator: CorelDRAW 2019 (64-Bit) -->
<svg xmlns="http://www.w3.org/2000/svg" xml:space="preserve" width="1823px" height="1823px" version="1.1" style="shape-rendering:geometricPrecision; text-rendering:geometricPrecision; image-rendering:optimizeQuality; fill-rule:evenodd; clip-rule:evenodd"
viewBox="0 0 920.06 920.06"
 xmlns:xlink="http://www.w3.org/1999/xlink">
 <defs>
  <style type="text/css">
   <![CDATA[
    .fil0 {fill:none}
    .fil1 {fill:#00ABC7}
   ]]>
  </style>
 </defs>
 <g id="Слой_x0020_1">
  <metadata id="CorelCorpID_0Corel-Layer"/>
  <g id="_2027961855280">
   <rect class="fil0" width="920.06" height="920.06"/>
   <g>
    <path class="fil1" d="M207.71 314.64c0,14.64 10.85,25.23 26.81,25.23l45.53 -17.55c113.3,-40.95 270.06,-37.42 381.64,8.3 15.73,6.45 28.54,16.44 43.28,1.87 10.9,-10.78 8.13,-27.01 -0.87,-34.83 -5.95,-5.18 -49.55,-21.85 -58.98,-24.6 -14.93,-4.35 -28.84,-8.1 -43.46,-11.74 -11.67,-2.91 -34.25,-8.18 -47,-8.18 2.57,-11.04 17.45,-29.51 20.5,-42.59 28.04,0 74.59,22.03 97.57,31.75l28.67 15.48c12.8,7.39 17.67,7.45 24.11,18.47 47.06,80.51 75.22,207.37 85.92,305.19 4.14,37.84 6.77,35.17 -4.82,46.66 -24.56,24.32 -56.1,42.68 -86.89,58.2 -20.69,10.43 -62.55,24.18 -92.52,24.18 -4.66,-6.96 -36.32,-44.74 -37.85,-50.47 10.65,0 38.45,-8.35 48.28,-11.65l45.22 -16.28c15.16,-6.03 27.72,-12.28 41.22,-20.28 13.32,-7.9 30.87,-14.83 30.87,-32.22 0,-7.01 -2.53,-12.19 -6.01,-16.07 -16.23,-18.03 -36.64,-0.46 -46.11,4.96 -30.22,17.28 -51.94,25.91 -86.84,36.16 -117.1,34.39 -259.02,26.46 -370.88,-21.44 -20.95,-8.97 -43.28,-27.26 -54.74,-27.26 -27.62,0 -33.14,30.6 -13.95,43.91 6.08,4.22 12.29,7.58 18.59,11.37 22.35,13.48 60.27,29.56 86.14,36.87 12.43,3.51 36.69,11.65 49.57,11.93 -1.31,4.91 -5.75,9.17 -8.96,13.12l-28.88 37.35c-29.21,0 -71.63,-13.83 -91.5,-23.63 -38.34,-18.92 -48.39,-27.09 -79.5,-51.4 -12.01,-9.39 -18.06,-13.4 -16.32,-25.39 8.19,-56.61 8.6,-87.61 23.62,-151.6 7.33,-31.24 15.12,-61.46 24.7,-90.41 9.67,-29.2 21.7,-56.43 34.89,-81.82 12.38,-23.82 15.89,-20.43 47.25,-37.91 24.58,-13.69 84.07,-37.77 108.9,-37.77 3.04,13.08 17.93,31.55 20.5,42.59 -28.85,0 -126.38,28.67 -147.64,43.17 -4.26,2.9 -10.06,12.59 -10.06,18.33zm656.05 297.82l0 18.57c-2.11,13.38 -10.57,20.62 -31.16,38.83 -16.84,14.88 -40.56,31.35 -59.62,42.88 -39.57,23.95 -80.5,38.71 -127.27,44.64 -27.99,3.54 -38.7,4.41 -51.87,-11.97l-59.69 -75.93c-24.3,2.02 -48.5,4.73 -74.12,4.73 -14.73,0 -24.72,-1.73 -37.85,-1.58 -13.5,0.15 -24.67,-2.9 -36.27,-3.15l-30.45 38.93c-38.91,47.78 -32.55,56.3 -83.82,48.52 -42.24,-6.4 -67.24,-14.31 -104.41,-32.78l-80.58 -55.05c-11.84,-11.01 -30.34,-24.27 -30.34,-39.05 0,-19.59 2.56,-36.87 4.45,-53.9 5.25,-47.3 14.45,-102.17 25.51,-146.39 17.89,-71.51 34.1,-121.27 72.03,-186.61 8.87,-15.27 34.58,-25.84 50.07,-35.08 6.44,-3.85 13.4,-7 19.81,-10.15 32.06,-15.79 72.23,-29.67 108.12,-35.4 21.01,-3.36 31.9,-3.69 42.01,9.9 3.24,4.36 6.91,13.09 9.7,18.68 3.64,7.28 6.35,11.62 10,18.4l19.44 37.33c14.08,0 21.93,-1.58 36.27,-1.58l48.89 1.58 20 -38.36c22.73,-40.61 18.06,-53.27 63.83,-45.47 55.54,9.45 115.52,36.17 161.88,66.79 9.15,6.03 8.3,4.56 14.02,14.37 20.52,35.22 41.92,80.15 53.2,120.28 2.25,8 4.27,13.39 6.66,21.71 4.44,15.43 7.94,29.01 11.91,44.87 12.4,49.58 18.81,94.81 25.38,146.52 1.89,14.92 3.47,26.09 4.27,34.92z"/>
    <path class="fil1" d="M608.27 466.04c0,55.09 -52.49,66.2 -70.38,21.49 -12.68,-31.68 14.3,-76.13 47.6,-60.22 11.76,5.62 22.78,21.91 22.78,38.73zm-121.43 1.57c0,89.64 94.85,125.5 145.48,68.2 50.45,-57.09 19.72,-159.67 -63.47,-159.67 -44.97,0 -82.01,45.35 -82.01,91.47z"/>
    <path class="fil1" d="M349.64 514.92c-56.01,0 -46.72,-103.2 7.22,-89.3 40.26,10.38 35.84,89.3 -7.22,89.3zm-86.74 -44.15c0,26.14 9.89,45.38 24.31,64 25.35,32.72 80.41,42.37 120.42,1.87 53.55,-54.21 17.27,-160.5 -56.41,-160.5 -53.8,0 -88.32,44.39 -88.32,94.63z"/>
   </g>
  </g>
 </g>
</svg>
