<?xml version="1.0" encoding="UTF-8"?>
<!DOCTYPE svg PUBLIC "-//W3C//DTD SVG 1.1//EN" "http://www.w3.org/Graphics/SVG/1.1/DTD/svg11.dtd">
<!-- Creator: CorelDRAW 2019 (64-Bit) -->
<svg xmlns="http://www.w3.org/2000/svg" xml:space="preserve" width="1823px" height="1823px" version="1.1" style="shape-rendering:geometricPrecision; text-rendering:geometricPrecision; image-rendering:optimizeQuality; fill-rule:evenodd; clip-rule:evenodd"
viewBox="0 0 2372.89 2372.89"
 xmlns:xlink="http://www.w3.org/1999/xlink">
 <defs>
  <style type="text/css">
   <![CDATA[
    .fil0 {fill:none}
    .fil1 {fill:#00ABC7}
   ]]>
  </style>
 </defs>
 <g id="Слой_x0020_1">
  <metadata id="CorelCorpID_0Corel-Layer"/>
  <g id="_2027635447232">
   <rect class="fil0" width="2372.89" height="2372.89"/>
   <path class="fil1" d="M860.99 1281.91c28.43,19.04 85.61,90.4 126.42,120.93 100.77,75.41 250.82,90.1 358.89,25.91 15.76,-9.37 24.13,-16.17 38.93,-26.16 44.23,-29.82 85.74,-93.28 126.67,-120.68l559.77 555.44 -1770.45 0 487.09 -484.92c18.94,-18.95 53.53,-57.69 72.68,-70.52zm746.37 -95.46c13.01,-19.43 49.43,-51.6 68.35,-70.52l52.1 -52.04c8.63,-7.59 10.83,-7.65 19.46,-15.25 52.7,-46.41 214.96,-214.89 277.75,-277.69 24.21,-24.2 45.23,-45.22 69.43,-69.42 18.95,-18.95 53.54,-57.7 72.69,-70.52l0 1110.87c-18.54,-12.41 -256.28,-254.11 -278.81,-276.63 -12.31,-12.31 -22.06,-23.11 -34.66,-34.77 -47.85,-44.26 -223.4,-209.83 -246.31,-244.03zm-1401.61 555.43l0 -1110.87 139.95 137.77c78.52,78.52 203.07,208.79 277.66,277.78 39.31,36.36 117.42,102.93 142.17,139.89 -13.01,19.42 -49.43,51.6 -68.35,70.51 -61.06,61.07 -111.76,115.13 -175.71,171.44l-173.6 173.54c-24.21,24.2 -45.23,45.23 -69.43,69.43 -18.95,18.94 -53.54,57.69 -72.69,70.51zm95.47 -1206.34l1770.45 0c-20.64,30.83 -268.43,266.27 -315.69,313.52l-423.04 423.13c-17.57,17.77 -36.75,33.37 -59.59,44.56 -152.82,74.86 -243.64,-54.88 -337.5,-148.74l-394.97 -390.46c-37.78,-37.39 -227.19,-223.38 -239.66,-242.01zm-225.65 52.08l0 1197.66c0,90.73 91.79,182.25 182.26,182.25l1857.23 0c90.47,0 182.26,-91.52 182.26,-182.25l0 -1197.66c0,-90.78 -91.47,-182.26 -182.26,-182.26l-1857.23 0c-90.47,0 -182.26,91.53 -182.26,182.26z"/>
  </g>
 </g>
</svg>
