<?xml version="1.0" encoding="UTF-8"?>
<!DOCTYPE svg PUBLIC "-//W3C//DTD SVG 1.1//EN" "http://www.w3.org/Graphics/SVG/1.1/DTD/svg11.dtd">
<!-- Creator: CorelDRAW 2019 (64-Bit) -->
<svg xmlns="http://www.w3.org/2000/svg" xml:space="preserve" width="1823px" height="1823px" version="1.1" style="shape-rendering:geometricPrecision; text-rendering:geometricPrecision; image-rendering:optimizeQuality; fill-rule:evenodd; clip-rule:evenodd"
viewBox="0 0 425.15 425.15"
 xmlns:xlink="http://www.w3.org/1999/xlink">
 <defs>
  <style type="text/css">
   <![CDATA[
    .fil0 {fill:none}
    .fil1 {fill:#00ABC7}
   ]]>
  </style>
 </defs>
 <g id="Слой_x0020_1">
  <metadata id="CorelCorpID_0Corel-Layer"/>
  <rect class="fil0" width="425.15" height="425.15"/>
  <g id="_2027952026352">
   <path class="fil1" d="M168.29 292.89l23.95 38.25c4.09,6.1 17.45,29.52 22.2,32.23 13.18,7.53 20.11,-10.64 28.03,-22.73 2.26,-3.45 3.82,-6.16 6.06,-9.5 2.19,-3.26 3.97,-6.33 6.07,-9.47 2.04,-3.07 3.99,-6.26 6.06,-9.49 1.16,-1.81 1.71,-2.95 2.94,-4.84 2.04,-3.11 8.24,-12.07 8.88,-14.45 8.71,0 27.59,3.76 36.07,5.91 17.93,4.52 46.99,13.22 58.56,26.96 12.95,15.36 -7.66,27.95 -20.25,33.74 -13.12,6.03 -17.57,7.12 -30.94,11.05 -5.63,1.66 -11.44,2.95 -17.59,4.18 -21.83,4.36 -54.66,7.58 -77.95,7.58 -7.22,0 -12.34,-0.82 -20.22,-0.78 -23.22,0.12 -68.7,-7.42 -90.85,-15.67 -13.73,-5.11 -51.88,-19.8 -36.01,-39.67 10.97,-13.73 41.19,-22.92 58.29,-27.24 8.77,-2.21 27.64,-6.06 36.7,-6.06zm52.09 37.32c-2.27,-1.67 -21.49,-33 -24.88,-38.09 -20.37,-30.6 -41.36,-66.54 -62.04,-97.35 -26.62,-39.66 -23.22,-93.52 9.77,-129.09 1.73,-1.88 1.7,-2.63 3.51,-4.26 4.98,-4.5 12.11,-10.55 17.91,-13.97 16.3,-9.58 21.68,-11.8 40.84,-15.14l14.89 -1.44c5.7,0 21.94,2.49 27.23,3.89 7.23,1.91 16.66,5.67 22.79,9.08l9.53 6.02c7.69,5.58 7.92,6.74 13.22,10.87 2.3,1.8 1.95,2.07 3.66,4.13 6.2,7.47 7.12,7.22 13.73,18.14 2.05,3.38 3.69,7.23 5.49,10.84 2.94,5.9 6.13,16.51 7.44,24.44 7.19,43.75 -8.86,65.16 -28.3,95.46l-18.48 28.94c-6.87,11.27 -54.36,86.11 -56.31,87.53zm-128.28 -199.81c0,52.95 15.91,67.86 42.61,110.55l18.81 29.39c-5.74,1.34 -11.64,2 -17.7,3.3 -22.96,4.92 -59.26,15.85 -75.42,31.87 -12.07,11.96 -19.73,26.67 -12.11,43.63 20.59,45.85 122.37,56.49 161.99,56.49 39.48,0 83.56,-2.2 121.19,-14.87 21.23,-7.15 63.85,-23.86 63.85,-52.78 0,-15.67 -4.38,-21.99 -14.95,-32.47 -6.08,-6.03 -17.95,-12.79 -26.27,-16.5 -9.8,-4.36 -20.48,-7.91 -31.69,-11.06 -15.14,-4.26 -22.65,-4.69 -35.16,-7.61l18.51 -28.91c20.28,-31.62 42.91,-60.72 42.91,-100.93 0,-27.98 -3.32,-38.72 -14.32,-63.43 -3.38,-7.59 -16.56,-25.34 -22.82,-31.6l-7.74 -7.03c-16.69,-16.12 -52.35,-30.89 -77.19,-30.89 -27.4,0 -48.05,3.9 -70.02,17.06 -6.31,3.79 -12.77,7.97 -18.38,12.71l-15.19 15.14c-11.51,12.94 -22.57,34.31 -26.72,51.03 -1.91,7.72 -4.19,17.85 -4.19,26.91z"/>
   <path class="fil1" d="M185.4 137.39c-0.38,-2.46 1.81,-10.92 2.99,-14.11 2.77,-7.56 9.7,-14.53 16.99,-17.99 33.96,-16.11 66.78,26.2 40,55.54 -1.87,2.05 -7.19,5.78 -10,7.11 -17.7,8.4 -38.41,0.36 -46.32,-16.32 -1.96,-4.12 -2.99,-9.86 -3.66,-14.23zm-23.33 -3.11l0 4.67c0,29.25 26.73,55.98 55.98,55.98l4.67 0c29.25,0 55.98,-26.73 55.98,-55.98l0 -4.67c0,-29.25 -26.73,-55.98 -55.98,-55.98l-4.67 0c-29.25,0 -55.98,26.73 -55.98,55.98z"/>
  </g>
 </g>
</svg>
