<?xml version="1.0" encoding="UTF-8"?>
<!DOCTYPE svg PUBLIC "-//W3C//DTD SVG 1.1//EN" "http://www.w3.org/Graphics/SVG/1.1/DTD/svg11.dtd">
<!-- Creator: CorelDRAW 2019 (64-Bit) -->
<svg xmlns="http://www.w3.org/2000/svg" xml:space="preserve" width="1823px" height="1823px" version="1.1" style="shape-rendering:geometricPrecision; text-rendering:geometricPrecision; image-rendering:optimizeQuality; fill-rule:evenodd; clip-rule:evenodd"
viewBox="0 0 1849.51 1849.51"
 xmlns:xlink="http://www.w3.org/1999/xlink">
 <defs>
  <style type="text/css">
   <![CDATA[
    .fil0 {fill:none}
    .fil1 {fill:#00ABC7}
   ]]>
  </style>
 </defs>
 <g id="Слой_x0020_1">
  <metadata id="CorelCorpID_0Corel-Layer"/>
  <g id="_2027856062448">
   <rect class="fil0" width="1849.51" height="1849.51"/>
   <path class="fil1" d="M794.2 1463.92c0.35,-15.91 36.32,-151.67 43.3,-179.6 4.31,-17.23 13.65,-45.99 14.02,-62.42 14.85,9.95 97.53,82.27 111.45,85.98 -10.63,15.87 -104.42,96.17 -125,117.01l-43.77 39.03zm331.17 -719.67l-143.77 152.37c-6.23,7.81 -7.02,9.7 -14.6,17.24l-143.67 152.48c-5.64,7.07 -10.63,11.31 -17.19,17.84 -11.52,11.46 -23.41,20.46 -29.12,37.75l-65.62 265.56 -16.85 -43.65c-15.08,-38.08 -110.19,-310.8 -110.52,-325.74 13.01,-3.03 49.07,-24.53 67.93,-33.96 23.92,-11.96 44.01,-22.01 67.93,-33.97l336.77 -172.73c12.29,-7.36 56.65,-30.38 68.71,-33.19zm0 0l0 0zm264.3 773.8c-22.14,0 -112.28,-77.81 -128.08,-91.64 -19.48,-17.03 -39.85,-32.9 -59.79,-48.47l-305.7 -245.2c18.13,-27.08 42.49,-44.56 63.21,-70.53 8.94,-11.21 22.37,-23.1 33.13,-33.74 12.54,-12.4 19.14,-22.49 31.82,-35.05l81.07 -84.52c6.95,-8.33 7.89,-10.93 16.01,-19.01l65.33 -68.42c5.8,-5.79 10.6,-9.93 15.9,-15.95l63.85 -69.89c5.58,-6.67 11.15,-11.44 17.37,-17.65l97.14 -103.49c56.26,-54.9 2,-93.15 -23.1,-93.15 -19.77,0 -54.4,20.84 -70.06,28.66l-269.61 137.99c-12.53,6.27 -21.47,10.57 -34.01,16.94 -12.94,6.57 -19.3,11.4 -32.85,18.1l-135.43 68.37c-41.68,25.38 -90.97,44.68 -135.26,68.53l-66.86 35.05c-23.72,11.86 -45.12,22.59 -67.96,33.94 -6.35,3.15 -10.29,5.34 -16.49,9.2 -17.25,10.75 -22.37,3.54 -56.35,-6.37 -22.72,-6.63 -223.88,-66.15 -239.2,-66.49l0 -6.37c16.09,-1.34 361.49,-137.79 418.34,-158.03l306.5 -117.02c14.98,-5.33 24.97,-10.04 39.03,-15.1l613.32 -233.83c47.44,-14.92 31.99,23.53 25.79,54.55 -6.12,30.58 -11.73,58.62 -17.52,87.57 -23.65,118.26 -47.29,233.27 -71.11,352.4 -23.04,115.19 -48.59,236.58 -71.65,351.87l-53.07 262.18c-4.73,23.66 -9.35,74.57 -33.71,74.57zm-1280.11 -659.16c0,75.35 73.54,91.15 130.93,107.89l225.45 64.33c24.1,6.55 18.7,4.8 26.96,30.36 9.67,29.92 18.88,55.16 29.39,85.24l89.97 257.13c5.14,15.52 9.75,25.8 15.15,42.17 23.23,70.37 59.24,140 153.78,129.24 42.88,-4.88 79.73,-35.93 107.77,-64.34 31.97,-32.38 91.64,-81.89 119.43,-109.84 10.75,-10.81 17.63,-22.46 34.19,-26.32l236.37 190.33c57.17,46.77 124.87,74.31 189.47,18.98 38.51,-32.98 45.95,-98.77 54.73,-142.7l185.23 -913.38c10.22,-51.13 31.58,-134.96 31.58,-184.96 0,-62.19 -50.75,-108.27 -95.53,-108.27 -57.39,0 -67.47,7.78 -125.09,30.95 -33.21,13.35 -63.76,23.47 -96.93,36.81 -32.32,13 -65.26,25.59 -96.79,36.95 -32.5,11.7 -63.51,24.69 -96.51,37.24l-481.73 183.8c-33.13,12.93 -65.58,24.12 -96.94,36.81 -32.61,13.19 -63.28,24.04 -96.91,36.83 -33.01,12.55 -64,25.52 -96.5,37.24l-289.14 112.1c-25.94,13.01 -58.33,38.85 -58.33,75.41z"/>
  </g>
 </g>
</svg>
